<svg fill="none" height="144" viewBox="0 0 113 144" width="113" xmlns="http://www.w3.org/2000/svg"><g stroke-linecap="round" stroke-width="4"><path d="m42.176 136.256h29.44l.8192-5.069" stroke="#ffe600" stroke-linejoin="round"/><path d="m85.2096 43.6096c7.2448 7.2448 11.7248 17.2288 11.7248 28.288s-4.48 21.0432-11.7248 28.2884" stroke="#ffe600" stroke-miterlimit="10"/><path d="m56.9216 43.2512c15.8208 0 28.6464 12.8256 28.6464 28.6464s-12.8256 28.6464-28.6464 28.6464c-7.9104 0-15.0784-3.2-20.2496-8.3968" stroke="#ffe600" stroke-miterlimit="10"/><g stroke="#000" stroke-linejoin="round"><path d="m34.9312 126.502 1.92 14.695h40.1408l1.92-14.695z"/><path d="m78.912 17.5744-1.92-14.6944h-40.1408l-1.92 14.6944z"/><path d="m90.9952 64.8832c.4608 2.2528.7168 4.608.7168 7.0144 0 19.2-15.5648 34.7904-34.7904 34.7904s-34.7904-15.5648-34.7904-34.7904 15.5648-34.7904 34.7904-34.7904c9.6 0 18.304 3.8912 24.6016 10.1888"/><path d="m56.9216 94.9376v3.3279"/><path d="m30.5536 71.8976h3.328"/><path d="m79.9616 71.8976h3.328"/><path d="m75.584 53.2608-3.2768 3.2512"/><path d="m41.5616 87.2832-3.2768 3.2512"/><path d="m38.2848 53.2608 3.2768 3.2512"/><path d="m72.3072 87.2832 3.2768 3.2512"/><path d="m39.104 23.7184-1.92 19.5328c5.6064-3.8656 12.3904-6.144 19.7376-6.144s14.1312 2.2784 19.7376 6.144l-1.92-19.5328c-5.5552-2.048-11.5456-3.1744-17.8176-3.1744s-12.2624 1.1264-17.8176 3.1744z"/><path d="m37.7984 106.688 1.3056 13.389c5.5552 2.048 11.5456 3.174 17.8176 3.174s12.2624-1.126 17.8176-3.174l1.3056-13.389"/><path d="m27.2768 37.7216 4.8384-20.1472h49.6128l4.6848 19.5328"/><path d="m56.9216 46.4256v25.472l9.6768 9.6768"/><path d="m13.2736 83.776h-4.63361c-3.5328 0-6.4-2.8672-6.4-6.4v-10.9568c0-3.5328 2.8672-6.4 6.4-6.4h4.63361"/><path d="m21.7472 43.456-2.0736-1.2032c-2.1504-1.2544-4.9152-.512-6.144 1.6384l-2.3552 4.0703c-1.25442 2.1504-.512 4.9152 1.6384 6.144l2.0224 1.1521"/><path d="m93.76 98.1632 1.8176 1.0496c2.3552 1.3572 5.3504.5632 6.7074-1.792l1.945-3.3536c1.357-2.3552.564-5.3504-1.792-6.7072l-2.4828-1.4336"/><path d="m93.76 45.6319 1.8176-1.0496c2.3552-1.3568 5.3504-.5631 6.7074 1.7921l1.945 3.3535c1.357 2.3552.564 5.3504-1.792 6.7072l-2.4828 1.4336"/><path d="m101.645 65.0623h5.734c1.895 0 3.405 1.5361 3.405 3.4049v6.8608c0 1.8944-1.536 3.4048-3.405 3.4048h-5.734"/><path d="m86.6432 105.997-4.9152 20.505h-49.6128l-4.8384-20.172"/><path d="m38.2848 113.114c-15.6672-7.117-26.5984-22.8868-26.5984-41.2164s10.9824-34.2272 26.752-41.2928"/><path d="m75.584 30.6816c15.6672 7.1168 26.598 22.8864 26.598 41.216s-10.9052 34.1244-26.598 41.2164"/></g></g></svg>