<svg width="12" height="14" viewBox="0 0 12 14" fill="none" xmlns="http://www.w3.org/2000/svg">
<path d="M1.33333 13.6667H10.6667C11.402 13.6667 12 13.0687 12 12.3334V5.00004C12 4.82323 11.9298 4.65366 11.8047 4.52864C11.6797 4.40361 11.5101 4.33337 11.3333 4.33337H9.33333V3.66671C9.33333 1.82871 7.838 0.333374 6 0.333374C4.162 0.333374 2.66667 1.82871 2.66667 3.66671V4.33337H0.666667C0.489856 4.33337 0.320286 4.40361 0.195262 4.52864C0.0702379 4.65366 0 4.82323 0 5.00004V12.3334C0 13.0687 0.598 13.6667 1.33333 13.6667ZM4 3.66671C4 2.56404 4.89733 1.66671 6 1.66671C7.10267 1.66671 8 2.56404 8 3.66671V4.33337H4V3.66671ZM1.33333 5.66671H2.66667V7.00004H4V5.66671H8V7.00004H9.33333V5.66671H10.6667L10.668 12.3334H1.33333V5.66671Z" fill="white"/>
</svg>
